<?xml version="1.0" encoding="utf-8"?>
<!-- Generator: Adobe Illustrator 19.0.0, SVG Export Plug-In . SVG Version: 6.00 Build 0)  -->
<svg version="1.1" id="Calque_1" xmlns="http://www.w3.org/2000/svg" xmlns:xlink="http://www.w3.org/1999/xlink" x="0px" y="0px"
	 viewBox="0 0 80.3 32.2" enable-background="new 0 0 80.3 32.2" xml:space="preserve">
<g id="XMLID_175_">
	<g id="XMLID_73_">
		<path id="XMLID_106_" fill="#4E71AA" d="M24.2,12.4c0-0.2,0.2-0.5,0.5-0.5h1.4c0.2,0,0.5,0.2,0.5,0.5v4.9c0,1.5,0.7,2.4,1.9,2.4
			c1.4,0,2.3-1.1,2.4-1.6v-5.7c0-0.4,0.2-0.5,0.5-0.5h1.2c0.2,0,0.5,0.2,0.5,0.5v8.6c0,0.2-0.2,0.5-0.5,0.5h-0.7
			c-0.2,0-0.4-0.2-0.4-0.4l-0.2-0.7c-0.2,0.2-1.2,1.3-3.1,1.3c-2.8,0-3.8-2-3.8-4.5V12.4z"/>
		<path id="XMLID_108_" fill="#4E71AA" d="M36.1,12.4c0-0.2,0.2-0.5,0.5-0.5h1.4c0.2,0,0.5,0.2,0.5,0.5v8.6c0,0.2-0.2,0.5-0.5,0.5
			h-1.4c-0.2,0-0.5-0.2-0.5-0.5V12.4z"/>
		<path id="XMLID_113_" fill="#4E71AA" d="M40.7,20.7l4-6.8v0h-3.4c-0.2,0-0.4-0.2-0.4-0.5v-1.1c0-0.3,0.2-0.5,0.4-0.5h6.1
			c0.4,0,0.6,0.3,0.4,0.6l-4,6.8v0H47c0.3,0,0.5,0.2,0.5,0.5v1.1c0,0.2-0.2,0.5-0.5,0.5h-5.9c-0.2,0-0.5-0.2-0.5-0.5V20.7z"/>
		<path id="XMLID_115_" fill="#4E71AA" d="M50.7,13.9h-1c-0.3,0-0.5-0.2-0.5-0.5v-1.1c0-0.3,0.2-0.5,0.5-0.5h1V9.3
			c0-0.2,0.2-0.5,0.5-0.5l1.4,0c0.2,0,0.4,0.2,0.4,0.5v2.7h2.4c0.3,0,0.5,0.2,0.5,0.5v1.1c0,0.2-0.2,0.5-0.5,0.5h-2.4v4.7
			c0,0.8,0.3,0.9,0.8,0.9c0.5,0,1.2-0.3,1.4-0.4c0.3-0.1,0.5,0,0.5,0.2l0.4,1c0.1,0.3,0,0.5-0.2,0.6c-0.2,0.1-1.6,0.7-2.8,0.7
			c-1.9,0-2.4-1.1-2.4-2.8V13.9z"/>
		<path id="XMLID_117_" fill="#4E71AA" d="M62.4,11.7c2.5,0,4.4,1.9,4.4,4.4c0,0.2,0,0.5,0,0.6c0,0.2-0.2,0.4-0.4,0.4h-6.5
			c0.1,1.3,1.2,2.5,2.7,2.5c0.9,0,1.6-0.4,2.1-0.7c0.3-0.2,0.5-0.3,0.6,0l0.7,0.9c0.2,0.2,0.2,0.4,0,0.6c-0.7,0.6-1.9,1.2-3.5,1.2
			c-2.9,0-4.8-2.3-4.8-5C57.6,14,59.5,11.7,62.4,11.7z M64.5,15.6c-0.1-1.1-1-2.1-2.2-2.1c-1.3,0-2.3,0.9-2.4,2.1H64.5z"/>
		<path id="XMLID_120_" fill="#4E71AA" d="M69,12.4c0-0.2,0.2-0.5,0.5-0.5h0.7c0.2,0,0.4,0.1,0.4,0.3l0.3,0.8c0.2-0.2,1-1.4,2.8-1.4
			c0.9,0,2,0.2,1.7,0.9l-0.6,1.2c-0.1,0.3-0.4,0.3-0.6,0.2c-0.1-0.1-0.5-0.2-0.8-0.2c-1.4,0-2,1-2.1,1.2v6c0,0.4-0.3,0.5-0.6,0.5
			h-1.1c-0.2,0-0.5-0.2-0.5-0.5V12.4z"/>
	</g>
	<circle id="XMLID_70_" fill="#4E71AA" cx="18.3" cy="24.7" r="1.4"/>
	<path id="XMLID_67_" fill="#4E71AA" d="M13.5,4.6C8.8,4.6,5,8.5,5,13.2c0,4.7,3.8,8.5,8.5,8.5s8.5-3.8,8.5-8.5
		C22,8.5,18.2,4.6,13.5,4.6z M13.5,19.4c-3.4,0-6.2-2.8-6.2-6.2s2.8-6.2,6.2-6.2s6.2,2.8,6.2,6.2S16.9,19.4,13.5,19.4z"/>
</g>
</svg>
